<svg width="85" height="80" viewBox="0 0 85 80" fill="none" xmlns="http://www.w3.org/2000/svg">
<path d="M54.1846 28.0616L49.0247 38.1884L57.0614 46.2251L45.8357 44.4471L40.6759 54.5739L38.8979 43.3483L27.6723 41.5703L37.7991 36.4104L36.0211 25.1848L44.0578 33.2215L54.1846 28.0616Z" fill="white"/>
<path opacity="0.4" d="M20.4156 6.80527L17.2411 13.0354L22.1854 17.9797L15.2792 16.8859L12.1048 23.116L11.011 16.2098L4.10482 15.116L10.335 11.9416L9.24114 5.03541L14.1854 9.97968L20.4156 6.80527Z" fill="white"/>
<path opacity="0.4" d="M77.4156 58.8053L74.2411 65.0354L79.1854 69.9797L72.2792 68.8859L69.1048 75.116L68.011 68.2098L61.1048 67.116L67.335 63.9416L66.2411 57.0354L71.1854 61.9797L77.4156 58.8053Z" fill="white"/>
</svg>
